<svg width="19" height="20" viewBox="0 0 19 20" fill="none" xmlns="http://www.w3.org/2000/svg">
<path d="M7.78003 6.39251C8.26467 5.18432 8.50698 4.58022 8.90067 4.49649C9.00419 4.47448 9.11118 4.47448 9.21469 4.49649C9.60838 4.58022 9.8507 5.18432 10.3353 6.39251C10.6109 7.07959 10.7487 7.42313 11.0066 7.65679C11.0789 7.72233 11.1574 7.7807 11.241 7.83109C11.539 8.01071 11.9111 8.04403 12.6551 8.11067C13.9147 8.22347 14.5445 8.27988 14.7368 8.63897C14.7767 8.71334 14.8038 8.79386 14.817 8.87718C14.8807 9.27951 14.4177 9.70074 13.4918 10.5432L13.2346 10.7771C12.8017 11.171 12.5852 11.3679 12.46 11.6137C12.3849 11.7611 12.3346 11.9199 12.311 12.0836C12.2717 12.3566 12.335 12.6423 12.4618 13.2137L12.5071 13.4178C12.7344 14.4425 12.8481 14.9548 12.7062 15.2067C12.5788 15.4329 12.344 15.5777 12.0846 15.5901C11.7959 15.6039 11.3891 15.2724 10.5754 14.6094C10.0394 14.1725 9.77132 13.9541 9.47378 13.8688C9.20186 13.7908 8.91351 13.7908 8.64159 13.8688C8.34404 13.9541 8.07601 14.1725 7.53994 14.6094C6.72629 15.2724 6.31946 15.6039 6.03073 15.5901C5.77138 15.5777 5.53661 15.4329 5.40915 15.2067C5.26725 14.9548 5.38092 14.4425 5.60826 13.4178L5.65356 13.2137C5.78033 12.6423 5.84371 12.3566 5.80438 12.0836C5.78078 11.9199 5.73043 11.7611 5.65532 11.6137C5.53012 11.3679 5.31367 11.171 4.88075 10.7771L4.62361 10.5432C3.69763 9.70074 3.23464 9.27951 3.29841 8.87718C3.31161 8.79386 3.33869 8.71334 3.37852 8.63897C3.57085 8.27988 4.20064 8.22347 5.46022 8.11067C6.20429 8.04403 6.57632 8.01071 6.87435 7.83109C6.95794 7.7807 7.03645 7.72233 7.10877 7.65679C7.36662 7.42313 7.50442 7.07959 7.78003 6.39251Z" fill="#FFC978" stroke="#FFC978" stroke-width="1.5096"/>
</svg>
